<svg id="レイヤー_1" data-name="レイヤー 1" xmlns="http://www.w3.org/2000/svg" viewBox="0 0 800 800"><defs><style>.cls-1{fill:#fff;}.cls-2{fill:#f4d3a9;}.cls-3{fill:#1a0e0e;}.cls-4{fill:#f90;}.cls-5{fill:none;}</style></defs><title>anonymous_01_07</title><rect class="cls-1" x="573" y="2" width="34" height="798"/><rect x="435" y="11" width="312" height="312" rx="29.59"/><circle class="cls-2" cx="267.5" cy="324.5" r="156.5"/><circle class="cls-3" cx="348.5" cy="279.5" r="28.5"/><path class="cls-4" d="M89,792c-37.33,0,40.15-297.44,86-311,40,32,155,24,193-9,63.79,58.83,136.27,319.85,118,320Z"/><path class="cls-1" d="M462.54,67.68V267A28.46,28.46,0,0,0,491,295.46H690.29a28.58,28.58,0,0,0,28.5-28.5V67.71a28.59,28.59,0,0,0-28.5-28.5H491A28.46,28.46,0,0,0,462.54,67.68Zm170.4,57.14a42.76,42.76,0,1,1-42.75-42.76A42.69,42.69,0,0,1,632.94,124.82ZM505,238.72c0-28.5,57.1-44.18,85.64-44.18s85.64,15.68,85.64,44.18V253H505Z"/><path class="cls-5" d="M418.72-3.28H761.28V339.28H418.72Z"/></svg>