<svg id="レイヤー_1" data-name="レイヤー 1" xmlns="http://www.w3.org/2000/svg" viewBox="0 0 800 800"><defs><style>.cls-1{fill:none;}.cls-2{fill:#f90;}</style></defs><title>anonymous_02</title><path d="M392.66,14.07c-197.53,0-357.85,160.32-357.85,357.86S195.13,729.79,392.66,729.79,750.52,569.47,750.52,371.93,590.2,14.07,392.66,14.07Zm0,107.36A107.36,107.36,0,1,1,285.31,228.79,107.21,107.21,0,0,1,392.66,121.43Zm0,508.16A257.68,257.68,0,0,1,178,514.36C179,443.14,321.09,404.14,392.66,404.14c71.22,0,213.64,39,214.72,110.22A257.7,257.7,0,0,1,392.66,629.59Z"/><path class="cls-1" d="M-21.43-58.43H837.43V800.43H-21.43Z"/><circle class="cls-2" cx="266.5" cy="313.5" r="156.5"/><path class="cls-2" d="M55,772s95-294,128-306c40,32,155,24,193-9,43,59,122,315,122,315Z"/></svg>