<svg id="レイヤー_1" data-name="レイヤー 1" xmlns="http://www.w3.org/2000/svg" viewBox="0 0 800 800"><defs><style>.cls-1{fill:#fff;}.cls-2{fill:#c90000;}.cls-3{fill:#0027e7;}.cls-4{fill:none;}.cls-5{fill:#f4d3a9;}.cls-6{fill:#1a0e0e;}.cls-7{fill:#f90;}</style></defs><title>anonymous_01_05</title><rect class="cls-1" x="573" y="2" width="34" height="798"/><circle class="cls-2" cx="590" cy="168" r="160"/><circle class="cls-3" cx="590" cy="168" r="122"/><path class="cls-1" d="M590.28,34.87A133.48,133.48,0,1,0,723.75,168.35,133.52,133.52,0,0,0,590.28,34.87Zm0,40.05a40,40,0,1,1-40,40A40,40,0,0,1,590.28,74.92Zm0,189.53a96.1,96.1,0,0,1-80.08-43c.4-26.56,53.39-41.11,80.08-41.11s79.68,14.55,80.08,41.11A96.1,96.1,0,0,1,590.28,264.45Z"/><path class="cls-4" d="M435.83,7.83H756.17V328.17H435.83Z"/><circle class="cls-5" cx="267.5" cy="324.5" r="156.5"/><circle class="cls-6" cx="348.5" cy="279.5" r="28.5"/><rect class="cls-2" x="486" y="48" width="35" height="60" transform="translate(95.92 383.73) rotate(-45.68)"/><rect class="cls-2" x="664" y="221" width="35" height="60" transform="translate(25.78 563.22) rotate(-45.68)"/><path class="cls-7" d="M89,792c-37.33,0,40.15-297.44,86-311,40,32,155,24,193-9,63.79,58.83,136.27,319.85,118,320Z"/></svg>