<?xml version="1.0" encoding="utf-8"?>
<!-- Generator: Adobe Illustrator 24.0.0, SVG Export Plug-In . SVG Version: 6.00 Build 0)  -->
<svg version="1.1" id="レイヤー_1" xmlns:sketch="http://www.bohemiancoding.com/sketch/ns"
	 xmlns="http://www.w3.org/2000/svg" xmlns:xlink="http://www.w3.org/1999/xlink" x="0px" y="0px" viewBox="0 0 218 46"
	 style="enable-background:new 0 0 218 46;" xml:space="preserve">
<style type="text/css">
	.st0{opacity:0.35;}
	.st1{fill-rule:evenodd;clip-rule:evenodd;}
	.st2{fill-rule:evenodd;clip-rule:evenodd;fill:#FFFFFF;}
	.st3{opacity:0.54;}
	.st4{fill-rule:evenodd;clip-rule:evenodd;fill:#4285F4;}
	.st5{fill-rule:evenodd;clip-rule:evenodd;fill:#34A853;}
	.st6{fill-rule:evenodd;clip-rule:evenodd;fill:#FBBC05;}
	.st7{fill-rule:evenodd;clip-rule:evenodd;fill:#EA4335;}
	.st8{fill:none;}
</style>
<g id="button_1_" transform="translate(4.000000, 4.000000)" sketch:type="MSLayerGroup" class="st0">
	<g id="button-bg_2_">
		<g sketch:type="MSShapeGroup">
			<path id="path-2_1_" class="st1" d="M0.8-0.8l208.5,0.1c1.1,0,2,0.9,2,2l0,37.6c0,1.1-0.9,2-2,2L0.7,40.8c-1.1,0-2-0.9-2-2
				l0-37.6C-1.2,0.1-0.3-0.8,0.8-0.8z"/>
		</g>
	</g>
</g>
<title>btn_google_light_normal_ios</title>
<desc>Created with Sketch.</desc>
<g id="_x39_-PATCH" transform="translate(-608.000000, -160.000000)" sketch:type="MSArtboardGroup">
</g>
<g id="button" transform="translate(4.000000, 4.000000)" sketch:type="MSLayerGroup">
	<g id="button-bg_1_">
		<g sketch:type="MSShapeGroup">
			<path id="path-2_4_" class="st2" d="M1-0.8h208c1.1,0,2,0.9,2,2v36c0,1.1-0.9,2-2,2H1c-1.1,0-2-0.9-2-2v-36C-1,0.1-0.1-0.8,1-0.8
				z"/>
		</g>
	</g>
</g>
<g class="st3">
	<path d="M62.7,26.1c0-0.4-0.2-0.8-0.5-1s-0.9-0.5-1.7-0.7s-1.4-0.5-1.9-0.8c-0.9-0.6-1.4-1.3-1.4-2.2c0-0.8,0.3-1.5,1-2
		s1.5-0.8,2.5-0.8c0.7,0,1.3,0.1,1.9,0.4s1,0.6,1.3,1.1s0.5,1,0.5,1.6h-1.7c0-0.5-0.2-0.9-0.5-1.2S61.4,20,60.8,20
		c-0.6,0-1,0.1-1.3,0.4S59,21,59,21.4s0.2,0.7,0.5,0.9s0.9,0.5,1.7,0.7s1.4,0.5,1.9,0.8s0.8,0.6,1,1s0.3,0.8,0.3,1.3
		c0,0.8-0.3,1.5-1,2c-0.6,0.5-1.5,0.7-2.6,0.7c-0.7,0-1.4-0.1-2-0.4s-1.1-0.6-1.4-1.1s-0.5-1-0.5-1.6h1.7c0,0.6,0.2,1,0.6,1.3
		s0.9,0.5,1.6,0.5c0.6,0,1.1-0.1,1.4-0.4C62.5,26.9,62.7,26.5,62.7,26.1z"/>
	<path d="M65.7,19.4c0-0.3,0.1-0.5,0.2-0.6s0.4-0.3,0.7-0.3s0.5,0.1,0.7,0.3s0.2,0.4,0.2,0.6c0,0.3-0.1,0.5-0.2,0.6
		s-0.4,0.2-0.7,0.2s-0.5,0-0.6-0.2S65.7,19.6,65.7,19.4z M67.5,28.7h-1.7v-7.4h1.7V28.7z"/>
	<path d="M69,24.9c0-1.1,0.3-2.1,0.8-2.8s1.3-1,2.1-1c0.8,0,1.5,0.3,2,0.9l0.1-0.7h1.5v7.2c0,1-0.3,1.7-0.9,2.3s-1.4,0.8-2.4,0.8
		c-0.5,0-1.1-0.1-1.6-0.3c-0.5-0.2-0.9-0.5-1.2-0.9l0.8-1c0.5,0.6,1.1,0.9,1.9,0.9c0.6,0,1-0.1,1.3-0.4s0.5-0.7,0.5-1.3V28
		c-0.5,0.5-1.1,0.8-1.9,0.8c-0.9,0-1.6-0.3-2.1-1S69,26.2,69,24.9z M70.7,25.1c0,0.7,0.2,1.3,0.5,1.8c0.3,0.4,0.7,0.6,1.3,0.6
		c0.7,0,1.2-0.3,1.5-0.9v-3.3c-0.3-0.6-0.8-0.8-1.5-0.8c-0.5,0-1,0.2-1.3,0.6S70.7,24.2,70.7,25.1z"/>
	<path d="M78.8,21.3v0.9c0.5-0.7,1.3-1,2.2-1c1.5,0,2.3,0.9,2.4,2.6v4.9h-1.7v-4.8c0-0.5-0.1-0.8-0.3-1s-0.5-0.3-1-0.3
		c-0.7,0-1.2,0.3-1.5,0.9v5.3h-1.7v-7.4h1.6V21.3z"/>
	<path d="M88.5,19.4c0-0.3,0.1-0.5,0.2-0.6s0.4-0.3,0.7-0.3s0.5,0.1,0.7,0.3s0.2,0.4,0.2,0.6c0,0.3-0.1,0.5-0.2,0.6
		s-0.4,0.2-0.7,0.2s-0.5-0.1-0.7-0.2S88.5,19.6,88.5,19.4z M90.3,28.7h-1.7v-7.4h1.7V28.7z"/>
	<path d="M93.6,21.3v0.9c0.5-0.7,1.3-1,2.2-1c1.5,0,2.3,0.9,2.4,2.6v4.9h-1.7v-4.8c0-0.5-0.1-0.8-0.3-1s-0.5-0.3-1-0.3
		c-0.7,0-1.2,0.3-1.5,0.9v5.3H92v-7.4h1.6V21.3z"/>
	<path d="M109.9,26.4l1.2-5.1h1.6l-2,7.4h-1.4l-1.6-5.1l-1.6,5.1h-1.4l-2-7.4h1.6l1.2,5.1l1.5-5.1h1.3L109.9,26.4z"/>
	<path d="M113.8,19.4c0-0.3,0.1-0.5,0.2-0.6c0.2-0.2,0.4-0.3,0.7-0.3s0.5,0.1,0.7,0.3s0.2,0.4,0.2,0.6c0,0.3-0.1,0.5-0.2,0.6
		s-0.4,0.2-0.7,0.2s-0.5-0.1-0.7-0.2C113.9,19.8,113.8,19.6,113.8,19.4z M115.5,28.7h-1.7v-7.4h1.7V28.7z"/>
	<path d="M119.4,19.5v1.8h1.3v1.2h-1.3v4.1c0,0.3,0.1,0.5,0.2,0.6s0.3,0.2,0.6,0.2c0.2,0,0.4,0,0.6-0.1v1.3
		c-0.4,0.1-0.7,0.2-1.1,0.2c-1.3,0-1.9-0.7-1.9-2.1v-4.2h-1.2v-1.2h1.2v-1.8H119.4z"/>
	<path d="M123.6,22.1c0.5-0.6,1.2-0.9,2.1-0.9c1.6,0,2.4,0.9,2.4,2.7v4.8h-1.7v-4.8c0-0.5-0.1-0.9-0.3-1.1c-0.2-0.2-0.5-0.3-1-0.3
		c-0.7,0-1.2,0.3-1.5,0.9v5.3H122V18.2h1.7L123.6,22.1L123.6,22.1z"/>
	<path d="M141.1,27.4c-0.4,0.5-0.9,0.8-1.5,1.1s-1.4,0.4-2.2,0.4s-1.6-0.2-2.2-0.6s-1.1-0.9-1.5-1.6c-0.3-0.7-0.5-1.5-0.5-2.5v-0.8
		c0-1.5,0.4-2.7,1.1-3.5s1.7-1.3,3-1.3c1.1,0,2,0.3,2.6,0.8s1,1.3,1.2,2.4h-1.7c-0.2-1.2-0.9-1.8-2.1-1.8c-0.8,0-1.4,0.3-1.8,0.8
		c-0.4,0.6-0.6,1.4-0.6,2.5v0.8c0,1.1,0.2,1.9,0.7,2.5s1.1,0.9,1.9,0.9c0.9,0,1.5-0.2,1.9-0.6V25h-2.1v-1.3h3.8L141.1,27.4
		L141.1,27.4z"/>
	<path d="M142.5,24.9c0-0.7,0.1-1.4,0.4-2s0.7-1,1.2-1.3s1.1-0.5,1.8-0.5c1,0,1.8,0.3,2.4,1c0.6,0.6,1,1.5,1,2.6v0.4
		c0,0.7-0.1,1.4-0.4,2c-0.3,0.6-0.7,1-1.2,1.3s-1.1,0.5-1.8,0.5c-1,0-1.9-0.3-2.5-1C142.8,27.1,142.5,26.2,142.5,24.9L142.5,24.9z
		 M144.1,25.1c0,0.8,0.2,1.4,0.5,1.8s0.8,0.6,1.3,0.6s1-0.2,1.3-0.7c0.3-0.4,0.5-1.1,0.5-1.9c0-0.7-0.2-1.3-0.5-1.8
		c-0.3-0.4-0.8-0.7-1.3-0.7s-1,0.2-1.3,0.6S144.1,24.2,144.1,25.1z"/>
	<path d="M150.5,24.9c0-0.7,0.1-1.4,0.4-2s0.7-1,1.2-1.3s1.1-0.5,1.8-0.5c1,0,1.8,0.3,2.4,1c0.6,0.6,1,1.5,1,2.6v0.4
		c0,0.7-0.1,1.4-0.4,2c-0.3,0.6-0.7,1-1.2,1.3s-1.1,0.5-1.8,0.5c-1,0-1.9-0.3-2.5-1C150.8,27.1,150.5,26.2,150.5,24.9L150.5,24.9z
		 M152.1,25.1c0,0.8,0.2,1.4,0.5,1.8s0.8,0.6,1.3,0.6s1-0.2,1.3-0.7c0.3-0.4,0.5-1.1,0.5-1.9c0-0.7-0.2-1.3-0.5-1.8
		c-0.3-0.4-0.8-0.7-1.3-0.7s-1,0.2-1.3,0.6S152.1,24.2,152.1,25.1z"/>
	<path d="M158.4,24.9c0-1.1,0.3-2.1,0.8-2.8c0.5-0.7,1.3-1,2.1-1s1.5,0.3,2,0.9l0.1-0.7h1.5v7.2c0,1-0.3,1.7-0.9,2.3
		c-0.6,0.6-1.4,0.8-2.4,0.8c-0.5,0-1.1-0.1-1.6-0.3c-0.5-0.2-0.9-0.5-1.2-0.9l0.8-1c0.5,0.6,1.1,0.9,1.9,0.9c0.6,0,1-0.1,1.3-0.4
		s0.5-0.7,0.5-1.3V28c-0.5,0.5-1.1,0.8-1.9,0.8c-0.9,0-1.6-0.3-2.1-1C158.7,27.1,158.4,26.2,158.4,24.9z M160.1,25.1
		c0,0.7,0.2,1.3,0.5,1.8c0.3,0.4,0.7,0.6,1.3,0.6c0.7,0,1.2-0.3,1.5-0.9v-3.3c-0.3-0.6-0.8-0.8-1.5-0.8c-0.5,0-1,0.2-1.3,0.6
		C160.2,23.6,160.1,24.2,160.1,25.1z"/>
	<path d="M168.4,28.7h-1.7V18.2h1.7V28.7z"/>
	<path d="M173.5,28.8c-1.1,0-1.9-0.3-2.6-1c-0.7-0.7-1-1.5-1-2.6V25c0-0.7,0.1-1.4,0.4-2c0.3-0.6,0.7-1,1.2-1.4s1.1-0.5,1.7-0.5
		c1,0,1.8,0.3,2.3,1c0.5,0.6,0.8,1.6,0.8,2.7v0.7h-4.8c0,0.6,0.3,1.1,0.6,1.4c0.4,0.4,0.8,0.5,1.4,0.5c0.8,0,1.4-0.3,1.9-0.9
		l0.9,0.9c-0.3,0.4-0.7,0.8-1.2,1C174.7,28.7,174.1,28.8,173.5,28.8z M173.3,22.5c-0.5,0-0.8,0.2-1.1,0.5s-0.5,0.8-0.5,1.3h3.2v-0.1
		c0-0.6-0.2-1-0.4-1.3S173.8,22.5,173.3,22.5z"/>
</g>
<g id="logo_googleg_48dp" transform="translate(15.000000, 15.000000)" sketch:type="MSLayerGroup">
	<path id="Shape" sketch:type="MSShapeGroup" class="st4" d="M16.4,8.4c0-0.6-0.1-1.3-0.2-1.8H7.8v3.5h4.8c-0.2,1.1-0.8,2.1-1.8,2.7
		V15h2.9C15.4,13.5,16.4,11.2,16.4,8.4L16.4,8.4z"/>
	<path id="Shape_1_" sketch:type="MSShapeGroup" class="st5" d="M7.8,17.2c2.4,0,4.5-0.8,6-2.2l-2.9-2.3c-0.8,0.5-1.8,0.9-3,0.9
		c-2.3,0-4.3-1.6-5-3.7h-3v2.3C1.2,15.2,4.2,17.2,7.8,17.2L7.8,17.2z"/>
	<path id="Shape_2_" sketch:type="MSShapeGroup" class="st6" d="M2.7,9.9C2.5,9.4,2.4,8.8,2.4,8.2S2.5,7,2.7,6.5V4.2h-3
		c-0.6,1.2-1,2.6-1,4s0.3,2.8,1,4L2.7,9.9L2.7,9.9z"/>
	<path id="Shape_3_" sketch:type="MSShapeGroup" class="st7" d="M7.8,2.8c1.3,0,2.5,0.5,3.4,1.3l2.6-2.6c-1.6-1.5-3.6-2.3-6-2.3
		c-3.5,0-6.6,2-8,5l3,2.3C3.4,4.4,5.4,2.8,7.8,2.8L7.8,2.8z"/>
	<path id="Shape_4_" sketch:type="MSShapeGroup" class="st8" d="M-1.2-0.8h18v18h-18C-1.2,17.2-1.2-0.8-1.2-0.8z"/>
</g>
<g id="handles_square" sketch:type="MSLayerGroup">
</g>
</svg>
