<?xml version="1.0" encoding="utf-8"?>
<!-- Generator: Adobe Illustrator 24.0.0, SVG Export Plug-In . SVG Version: 6.00 Build 0)  -->
<svg version="1.1" id="レイヤー_1" xmlns:sketch="http://www.bohemiancoding.com/sketch/ns"
	 xmlns="http://www.w3.org/2000/svg" xmlns:xlink="http://www.w3.org/1999/xlink" x="0px" y="0px" viewBox="0 0 218 46"
	 style="enable-background:new 0 0 218 46;" xml:space="preserve">
<style type="text/css">
	.st0{filter:url(#filter-1);}
	.st1{fill-rule:evenodd;clip-rule:evenodd;fill:#FFFFFF;}
	.st2{fill-rule:evenodd;clip-rule:evenodd;fill:#4285F4;}
	.st3{fill-rule:evenodd;clip-rule:evenodd;fill:#34A853;}
	.st4{fill-rule:evenodd;clip-rule:evenodd;fill:#FBBC05;}
	.st5{fill-rule:evenodd;clip-rule:evenodd;fill:#EA4335;}
	.st6{fill:none;}
	.st7{opacity:0.54;}
</style>
<filter  filterUnits="objectBoundingBox" height="200%" id="filter-1" width="200%" x="-50%" y="-50%">
	<feOffset  dx="0" dy="1" in="SourceAlpha" result="shadowOffsetOuter1"></feOffset>
	<feGaussianBlur  in="shadowOffsetOuter1" result="shadowBlurOuter1" stdDeviation="0.5"></feGaussianBlur>
	
		<feColorMatrix  in="shadowBlurOuter1" result="shadowMatrixOuter1" type="matrix" values="0 0 0 0 0   0 0 0 0 0   0 0 0 0 0  0 0 0 0.168 0">
		</feColorMatrix>
	<feOffset  dx="0" dy="0" in="SourceAlpha" result="shadowOffsetOuter2"></feOffset>
	<feGaussianBlur  in="shadowOffsetOuter2" result="shadowBlurOuter2" stdDeviation="0.5"></feGaussianBlur>
	
		<feColorMatrix  in="shadowBlurOuter2" result="shadowMatrixOuter2" type="matrix" values="0 0 0 0 0   0 0 0 0 0   0 0 0 0 0  0 0 0 0.084 0">
		</feColorMatrix>
	<feMerge>
		<feMergeNode  in="shadowMatrixOuter1"></feMergeNode>
		<feMergeNode  in="shadowMatrixOuter2"></feMergeNode>
		<feMergeNode  in="SourceGraphic"></feMergeNode>
	</feMerge>
</filter>
<g>
	<title>btn_google_light_normal_ios</title>
	<desc>Created with Sketch.</desc>
	<g id="_x39_-PATCH" transform="translate(-608.000000, -160.000000)" sketch:type="MSArtboardGroup">
	</g>
	<g id="button" transform="translate(4.000000, 4.000000)" sketch:type="MSLayerGroup" class="st0">
		<g id="button-bg_1_">
			<g sketch:type="MSShapeGroup">
				<path id="path-2_4_" class="st1" d="M1-0.8l208,0c1.1,0,2,0.9,2,2v36c0,1.1-0.9,2-2,2l-208,0c-1.1,0-2-0.9-2-2v-36
					C-1,0.1-0.1-0.8,1-0.8z"/>
			</g>
		</g>
	</g>
	<g id="logo_googleg_48dp" transform="translate(15.000000, 15.000000)" sketch:type="MSLayerGroup">
		<path id="Shape" sketch:type="MSShapeGroup" class="st2" d="M16.4,8.4c0-0.6-0.1-1.3-0.2-1.8H7.8v3.5h4.8
			c-0.2,1.1-0.8,2.1-1.8,2.7V15h2.9C15.4,13.5,16.4,11.2,16.4,8.4L16.4,8.4z"/>
		<path id="Shape_1_" sketch:type="MSShapeGroup" class="st3" d="M7.8,17.2c2.4,0,4.5-0.8,6-2.2l-2.9-2.3c-0.8,0.5-1.8,0.9-3,0.9
			c-2.3,0-4.3-1.6-5-3.7h-3v2.3C1.2,15.2,4.2,17.2,7.8,17.2L7.8,17.2z"/>
		<path id="Shape_2_" sketch:type="MSShapeGroup" class="st4" d="M2.7,9.9C2.5,9.4,2.4,8.8,2.4,8.2S2.5,7,2.7,6.5V4.2h-3
			c-0.6,1.2-1,2.6-1,4s0.3,2.8,1,4L2.7,9.9L2.7,9.9z"/>
		<path id="Shape_3_" sketch:type="MSShapeGroup" class="st5" d="M7.8,2.8c1.3,0,2.5,0.5,3.4,1.3l2.6-2.6c-1.6-1.5-3.6-2.3-6-2.3
			c-3.5,0-6.6,2-8,5l3,2.3C3.4,4.4,5.4,2.8,7.8,2.8L7.8,2.8z"/>
		<path id="Shape_4_" sketch:type="MSShapeGroup" class="st6" d="M-1.2-0.8h18v18h-18V-0.8z"/>
	</g>
	<g>
		<path class="st7" d="M62.3,25.6c0-0.4-0.2-0.8-0.5-1s-0.9-0.5-1.7-0.7s-1.4-0.5-1.9-0.8c-0.9-0.6-1.4-1.3-1.4-2.2
			c0-0.8,0.3-1.5,1-2s1.5-0.8,2.5-0.8c0.7,0,1.3,0.1,1.9,0.4s1,0.6,1.3,1.1s0.5,1,0.5,1.6h-1.7c0-0.5-0.2-0.9-0.5-1.2
			s-0.8-0.4-1.4-0.4c-0.6,0-1,0.1-1.3,0.4s-0.5,0.6-0.5,1c0,0.4,0.2,0.7,0.5,0.9s0.9,0.5,1.7,0.7s1.4,0.5,1.9,0.8s0.8,0.6,1,1
			s0.3,0.8,0.3,1.3c0,0.8-0.3,1.5-1,2c-0.6,0.5-1.5,0.7-2.6,0.7c-0.7,0-1.4-0.1-2-0.4s-1.1-0.6-1.4-1.1c-0.3-0.5-0.5-1-0.5-1.6h1.7
			c0,0.6,0.2,1,0.6,1.3c0.4,0.3,0.9,0.5,1.6,0.5c0.6,0,1.1-0.1,1.4-0.4C62.2,26.3,62.3,26,62.3,25.6z"/>
		<path class="st7" d="M67.4,28.2h-1.7v-10h1.7V28.2z"/>
		<path class="st7" d="M77.1,26.9c-0.4,0.5-0.9,0.8-1.5,1.1c-0.6,0.2-1.4,0.4-2.2,0.4c-0.8,0-1.6-0.2-2.2-0.6
			c-0.6-0.4-1.1-0.9-1.5-1.6s-0.5-1.5-0.5-2.5v-0.8c0-1.5,0.4-2.7,1.1-3.5s1.7-1.3,3-1.3c1.1,0,2,0.3,2.6,0.8s1,1.3,1.2,2.4h-1.7
			c-0.2-1.2-0.9-1.8-2.1-1.8c-0.8,0-1.4,0.3-1.8,0.8c-0.4,0.6-0.6,1.4-0.6,2.5v0.8c0,1.1,0.2,1.9,0.7,2.5c0.5,0.6,1.1,0.9,1.9,0.9
			c0.9,0,1.5-0.2,1.9-0.6v-1.9h-2.1v-1.3h3.8V26.9z"/>
		<path class="st7" d="M86.9,28.2h-1.7l-4.4-7.1v7.1H79v-10h1.7l4.5,7.1v-7.1h1.7V28.2z"/>
		<path class="st7" d="M94.3,28.2h-1.7v-10h1.7V28.2z"/>
		<path class="st7" d="M104.3,28.2h-1.7l-4.4-7.1v7.1h-1.7v-10h1.7l4.5,7.1v-7.1h1.7V28.2z"/>
		<path class="st7" d="M117.6,25.7l1.5-7.5h1.7l-2.3,10h-1.7l-1.9-7.3l-1.9,7.3h-1.7l-2.3-10h1.7l1.5,7.5l1.9-7.5h1.4L117.6,25.7z"
			/>
		<path class="st7" d="M124,28.2h-1.7v-10h1.7V28.2z"/>
		<path class="st7" d="M133.1,19.6H130v8.6h-1.7v-8.6h-3.1v-1.4h7.9V19.6z"/>
		<path class="st7" d="M142.3,28.2h-1.7v-4.4h-4.5v4.4h-1.7v-10h1.7v4.1h4.5v-4.1h1.7V28.2z"/>
		<path class="st7" d="M155.5,26.9c-0.4,0.5-0.9,0.8-1.5,1.1c-0.6,0.2-1.4,0.4-2.2,0.4c-0.8,0-1.6-0.2-2.2-0.6
			c-0.6-0.4-1.1-0.9-1.5-1.6c-0.3-0.7-0.5-1.5-0.5-2.5v-0.8c0-1.5,0.4-2.7,1.1-3.5s1.7-1.3,3-1.3c1.1,0,2,0.3,2.6,0.8s1,1.3,1.2,2.4
			h-1.7c-0.2-1.2-0.9-1.8-2.1-1.8c-0.8,0-1.4,0.3-1.8,0.8c-0.4,0.6-0.6,1.4-0.6,2.5v0.8c0,1.1,0.2,1.9,0.7,2.5
			c0.5,0.6,1.1,0.9,1.9,0.9c0.9,0,1.5-0.2,1.9-0.6v-1.9h-2.1v-1.3h3.8V26.9z"/>
		<path class="st7" d="M165.3,23.5c0,1-0.2,1.8-0.5,2.6c-0.3,0.7-0.8,1.3-1.4,1.7c-0.6,0.4-1.3,0.6-2.2,0.6c-0.8,0-1.5-0.2-2.2-0.6
			c-0.6-0.4-1.1-1-1.5-1.7c-0.3-0.7-0.5-1.6-0.5-2.5V23c0-1,0.2-1.8,0.5-2.6c0.3-0.7,0.8-1.3,1.5-1.7c0.6-0.4,1.3-0.6,2.2-0.6
			s1.5,0.2,2.2,0.6c0.6,0.4,1.1,1,1.5,1.7s0.5,1.6,0.5,2.6V23.5z M163.6,23c0-1.1-0.2-1.9-0.6-2.5c-0.4-0.6-1-0.9-1.8-0.9
			c-0.7,0-1.3,0.3-1.8,0.9c-0.4,0.6-0.6,1.4-0.6,2.5v0.6c0,1.1,0.2,1.9,0.6,2.5c0.4,0.6,1,0.9,1.8,0.9c0.8,0,1.4-0.3,1.8-0.9
			c0.4-0.6,0.6-1.4,0.6-2.6V23z"/>
		<path class="st7" d="M175,23.5c0,1-0.2,1.8-0.5,2.6c-0.3,0.7-0.8,1.3-1.4,1.7c-0.6,0.4-1.3,0.6-2.2,0.6c-0.8,0-1.5-0.2-2.2-0.6
			c-0.6-0.4-1.1-1-1.5-1.7c-0.3-0.7-0.5-1.6-0.5-2.5V23c0-1,0.2-1.8,0.5-2.6c0.3-0.7,0.8-1.3,1.5-1.7c0.6-0.4,1.3-0.6,2.2-0.6
			s1.5,0.2,2.2,0.6c0.6,0.4,1.1,1,1.5,1.7s0.5,1.6,0.5,2.6V23.5z M173.2,23c0-1.1-0.2-1.9-0.6-2.5c-0.4-0.6-1-0.9-1.8-0.9
			c-0.7,0-1.3,0.3-1.8,0.9c-0.4,0.6-0.6,1.4-0.6,2.5v0.6c0,1.1,0.2,1.9,0.6,2.5c0.4,0.6,1,0.9,1.8,0.9c0.8,0,1.4-0.3,1.8-0.9
			c0.4-0.6,0.6-1.4,0.6-2.6V23z"/>
		<path class="st7" d="M184.3,26.9c-0.4,0.5-0.9,0.8-1.5,1.1c-0.6,0.2-1.4,0.4-2.2,0.4c-0.8,0-1.6-0.2-2.2-0.6
			c-0.6-0.4-1.1-0.9-1.5-1.6c-0.3-0.7-0.5-1.5-0.5-2.5v-0.8c0-1.5,0.4-2.7,1.1-3.5s1.7-1.3,3-1.3c1.1,0,2,0.3,2.6,0.8s1,1.3,1.2,2.4
			h-1.7c-0.2-1.2-0.9-1.8-2.1-1.8c-0.8,0-1.4,0.3-1.8,0.8c-0.4,0.6-0.6,1.4-0.6,2.5v0.8c0,1.1,0.2,1.9,0.7,2.5
			c0.5,0.6,1.1,0.9,1.9,0.9c0.9,0,1.5-0.2,1.9-0.6v-1.9h-2.1v-1.3h3.8V26.9z"/>
		<path class="st7" d="M188,26.8h4.5v1.4h-6.2v-10h1.7V26.8z"/>
		<path class="st7" d="M199.6,23.7h-4.1v3.1h4.8v1.4h-6.5v-10h6.5v1.4h-4.7v2.7h4.1V23.7z"/>
	</g>
	<g id="handles_square" sketch:type="MSLayerGroup">
	</g>
</g>
</svg>
