<svg id="レイヤー_1" data-name="レイヤー 1" xmlns="http://www.w3.org/2000/svg" viewBox="0 0 800 800"><defs><style>.cls-1{fill:#009;opacity:0.29;}.cls-2{fill:#fff;stroke:#06f;stroke-miterlimit:10;stroke-width:2.83px;}.cls-3{fill:#222;}.cls-4{fill:#f90;}.cls-5{fill:#f4d3a9;}.cls-6{fill:#ccc;}</style></defs><title>no_wadai_03</title><path class="cls-1" d="M525.21,297.59c-35,30.63-220.61,377.88-338.27,393.71S405.29,818,495.8,749,685.87,349.63,672.29,321.35,543.32,281.75,525.21,297.59Z"/><path class="cls-2" d="M525.21,286.28C490.21,316.9,304.6,664.15,186.94,680S405.29,806.7,495.8,737.69,685.87,338.32,672.29,310,543.32,270.44,525.21,286.28Z"/><path class="cls-3" d="M524.08,324.74c8.44-18.15,37.89-17.38,45.26-2.26,19.59,40.2-108.64,309.62-211.57,388.06C322.7,741.08,227.41,688.91,239,683.38,325.53,642.09,490.71,396.59,524.08,324.74Z"/><path class="cls-4" d="M320.44,244.42c-55.44,7.92-106.59,367,0,406.16,87.38,32.12,135.79-4.12,155-10.19,30.54-9.64,95.45-266.87,21.5-364.29C454,316.11,314,262.48,320.44,244.42Z"/><circle class="cls-5" cx="193.69" cy="498.38" r="59.49"/><path class="cls-6" d="M636.65,332.1C651.9,354.7,577,588.79,549.54,610.41c-9.46,7.44-43.18-11.51-32.81-21.49,12.48-12,90.51-201.39,95-257.95C624.21,320.78,634.06,328.25,636.65,332.1Z"/><circle class="cls-5" cx="425.09" cy="159" r="130.11"/><circle cx="340.24" cy="149.95" r="22.63"/><circle cx="431.88" cy="159" r="22.63"/><circle class="cls-5" cx="626.6" cy="379.78" r="29.98"/></svg>