<svg id="レイヤー_1" data-name="レイヤー 1" xmlns="http://www.w3.org/2000/svg" viewBox="0 0 800 800"><defs><style>.cls-1{fill:#009;opacity:0.29;}.cls-2{fill:#fff;stroke:#06f;stroke-miterlimit:10;}.cls-3{fill:#222;}.cls-4{fill:#f90;}.cls-5{fill:#f4d3a9;}.cls-6{fill:#ccc;}</style></defs><title>no_wadai</title><path class="cls-1" d="M476.5,305.5c-30.94,27.07-195,334-299,348s193,112,273,51,168-353,156-378S492.5,291.5,476.5,305.5Z"/><path class="cls-2" d="M476.5,295.5c-30.94,27.07-195,334-299,348s193,112,273,51,168-353,156-378S492.5,281.5,476.5,295.5Z"/><path class="cls-3" d="M475.5,329.5c7.45-16,33.49-15.36,40-2,17.32,35.53-96,273.67-187,343-31,27-115.23-19.12-105-24C300,610,446,393,475.5,329.5Z"/><path class="cls-4" d="M295.5,258.5c-49,7-94.21,324.36,0,359,77.24,28.4,120-3.64,137-9,27-8.52,84.36-235.89,19-322C413.55,321.87,289.84,274.47,295.5,258.5Z"/><circle class="cls-5" cx="495" cy="378" r="26.5"/><circle class="cls-5" cx="230" cy="398" r="38.81"/><path class="cls-6" d="M575,336c13.48,20-52.69,226.89-77,246-8.36,6.57-38.17-10.17-29-19,11-10.62,80-178,84-228C564,326,572.71,332.6,575,336Z"/><circle class="cls-5" cx="388" cy="183" r="115"/><circle cx="313" cy="175" r="20"/><circle cx="394" cy="183" r="20"/></svg>