<svg id="レイヤー_1" data-name="レイヤー 1" xmlns="http://www.w3.org/2000/svg" viewBox="0 0 800 800"><defs><style>.cls-1{fill:#009;opacity:0.29;}.cls-2{fill:#fff;stroke:#06f;stroke-miterlimit:10;}.cls-3{fill:#222;}.cls-4{fill:#f90;}.cls-5{fill:#f4d3a9;}.cls-6{fill:#ccc;}</style></defs><title>no_wadai_02</title><path class="cls-1" d="M537.3,336.07C496.32,371.93,279,778.5,141.23,797S396.88,945.41,502.86,864.6,725.4,397,709.5,363.89,558.49,317.52,537.3,336.07Z"/><path class="cls-2" d="M537.3,322.82c-41,35.86-258.31,442.43-396.07,461s255.65,148.36,361.63,67.56S725.4,383.76,709.5,350.64,558.49,304.28,537.3,322.82Z"/><path class="cls-3" d="M536,367.86c9.88-21.25,44.36-20.35,53-2.65,22.94,47.07-127.2,362.52-247.71,454.35-41.06,35.77-152.64-25.32-139.09-31.79C303.5,739.42,496.9,452,536,367.86Z"/><path class="cls-4" d="M297.54,273.81c-64.91,9.27-124.8,429.66,0,475.55,102.31,37.62,159-4.82,181.47-11.92C514.77,726.15,590.76,425,504.18,310.9,453.91,357.76,290,295,297.54,273.81Z"/><circle class="cls-5" cx="139.77" cy="505.6" r="51.42"/><path class="cls-6" d="M667.77,376.47c17.85,26.47-69.8,300.55-102,325.86-11.07,8.71-50.56-13.47-38.42-25.17,14.61-14.07,106-235.78,111.27-302C653.2,363.22,664.74,372,667.77,376.47Z"/><circle class="cls-5" cx="420.07" cy="173.8" r="152.33"/><circle cx="320.72" cy="163.2" r="26.49"/><circle cx="428.01" cy="173.8" r="26.49"/><circle class="cls-5" cx="656.8" cy="397.1" r="35.1"/></svg>