<svg id="レイヤー_1" data-name="レイヤー 1" xmlns="http://www.w3.org/2000/svg" viewBox="0 0 742 654.6"><defs><style>.cls-1{fill:#ccc;}.cls-2{fill:#6b93ff;}.cls-3{fill:#06f;}.cls-4,.cls-6{fill:#f4d3a9;}.cls-5{fill:#f90;}.cls-6,.cls-7{stroke:#777;stroke-miterlimit:10;stroke-width:28.35px;}.cls-7{fill:none;}</style></defs><title>tutorial_work</title><path class="cls-1" d="M244.28,296.72c19.18-92.24,45.18-179.06,89.75-178.46S623.72,340.73,623.72,340.73Z" transform="translate(-29 -73)"/><path class="cls-2" d="M342.22,341.14C369.5,231.86,406.47,129,469.85,129.72S717,372.5,717,372.5Z" transform="translate(-29 -73)"/><path class="cls-3" d="M29,433.5C60,280.5,114.5,72,186.5,73s468,369,468,369Z" transform="translate(-29 -73)"/><circle class="cls-4" cx="699.5" cy="331.5" r="42.5"/><circle class="cls-4" cx="584" cy="123" r="110"/><ellipse class="cls-5" cx="555.91" cy="515.11" rx="218.5" ry="129.5" transform="translate(-127.41 824.53) rotate(-73.12)"/><circle class="cls-4" cx="387.5" cy="352.5" r="42.5"/><path class="cls-6" d="M283.78,560.54c28.26-1,84.44-5.08,84.44-5.08" transform="translate(-29 -73)"/><circle cx="647.5" cy="112.5" r="19.12"/><path class="cls-6" d="M270,605c32-6,84-9,84-9" transform="translate(-29 -73)"/><path class="cls-7" d="M190.36,545.55A30,30,0,1,1,244.77,536" transform="translate(-29 -73)"/><path class="cls-7" d="M182.93,605a30,30,0,1,1-5.43-59.51,29.87,29.87,0,0,1,18.1,6.07" transform="translate(-29 -73)"/><path class="cls-7" d="M229.53,631.69a30,30,0,0,1-55.61-22.54" transform="translate(-29 -73)"/></svg>