<svg id="レイヤー_1" data-name="レイヤー 1" xmlns="http://www.w3.org/2000/svg" viewBox="0 0 614.24 760.08"><defs><style>.cls-1{fill:#eee;}.cls-2{fill:#ccc;}.cls-3{fill:#ddd;}.cls-4{fill:#f4d3a9;}.cls-5{fill:#06f;}.cls-6{fill:#f90;}.cls-7,.cls-8{fill:none;stroke-miterlimit:10;stroke-width:22.68px;}.cls-7{stroke:#ffca47;}.cls-8{stroke:#6b93ff;}</style></defs><title>tutorial_wadai</title><rect class="cls-1" x="197.44" y="121.65" width="147.61" height="270.69"/><rect class="cls-2" width="301" height="552"/><rect class="cls-3" x="406.76" y="109.75" width="207.48" height="380.5"/><circle class="cls-4" cx="147" cy="293" r="89"/><circle class="cls-4" cx="501" cy="321" r="89"/><circle class="cls-4" cx="421.5" cy="469.5" r="34.5"/><circle class="cls-4" cx="372.5" cy="517.5" r="34.5"/><path class="cls-5" d="M595,457c37.22-5.89,86,17.48,101,53,8.41,19.88,4,38.18-1,60-37.81,165.39-29.19,187-57,202-39.79,21.42-97.56-1.29-107-5-10.75-4.22-25.67-10.09-36-20C435.74,690.14,498.76,472.24,595,457Z" transform="translate(-93 -21)"/><circle cx="188.5" cy="282.5" r="18.5"/><circle cx="466.5" cy="305.5" r="18.5"/><circle class="cls-4" cx="214.5" cy="444.5" r="34.5"/><path class="cls-6" d="M149,771c-58.14-21-64.26-179.85-37-265,17.85-55.75,34.55-73.39,53-81,44-18.17,96.84,20.9,105,28,62.51,54.4,65.24,258.21,39,304-12.23,21.34-31.54,22.14-93,20C166,775.26,180.12,782.26,149,771Z" transform="translate(-93 -21)"/><circle class="cls-4" cx="223.5" cy="501.5" r="34.5"/><line class="cls-7" x1="246" y1="131" x2="211" y2="193"/><line class="cls-7" x1="148.5" y1="172.5" x2="166.5" y2="55.5"/><line class="cls-8" x1="417.5" y1="235.5" x2="356.5" y2="180.5"/><line class="cls-8" x1="458.5" y1="207.5" x2="421.5" y2="80.5"/></svg>