<svg id="レイヤー_1" data-name="レイヤー 1" xmlns="http://www.w3.org/2000/svg" viewBox="0 0 493.46 738.58"><defs><style>.cls-1{fill:#f4d3a9;}.cls-2{fill:#f90;}.cls-3{fill:#06f;}.cls-4{fill:#fff;}.cls-5{fill:#6b93ff;}.cls-6{fill:#ffdbc4;}</style></defs><title>welcomeman4</title><circle class="cls-1" cx="241" cy="380.02" r="241"/><path class="cls-2" d="M653,798.1c-11.91-38.15-47.46-119-68.46-128.6-24-11-120,45-169,49s-150-38-179-48c-26.85-9.26-47.71,74.09-65.73,128.56Z" transform="translate(-159.5 -60.48)"/><circle cx="333.5" cy="354.52" r="38"/><circle cx="144.5" cy="354.52" r="38"/><path class="cls-3" d="M480,89.83,442,72h-.54c-17.23-7.15-32-11.52-42-11.52s-24.73,4.37-42,11.52H359L322,89.31C258.55,122.41,185.6,174.08,186,189c.5,18.5,13.5,60.5,30.5,73.5s96-16,184-30c88,14,167,43,184,30s30-55,30.5-73.5C615.4,174.15,543.21,123,480,89.83Z" transform="translate(-159.5 -60.48)"/><path class="cls-3" d="M457.48,166.45a4.74,4.74,0,0,1,0,6.72l-30.55,30.55a4.74,4.74,0,0,1-6.72,0l-3.27-3.27a12.43,12.43,0,0,1,0-17.59l19.68-19.68a12.43,12.43,0,0,1,17.59,0ZM356.64,122.56l28.47-28.48,15.43,15.43L416,94.08l28.47,28.48a12.43,12.43,0,0,1,0,17.59l-6.63,6.63-37.27,37.27-37.27-37.27-6.63-6.63A12.43,12.43,0,0,1,356.64,122.56Zm-13,43.89,3.27-3.27a12.43,12.43,0,0,1,17.59,0l19.68,19.68a12.43,12.43,0,0,1,0,17.59l-3.27,3.27a4.74,4.74,0,0,1-6.72,0L343.6,173.17A4.74,4.74,0,0,1,343.6,166.45Z" transform="translate(-159.5 -60.48)"/><path class="cls-4" d="M363.27,146.78l37.27,37.27,37.27-37.27,6.63-6.63a12.43,12.43,0,0,0,0-17.59L416,94.08l-15.43,15.43L385.11,94.08l-28.47,28.48a12.43,12.43,0,0,0,0,17.59Z" transform="translate(-159.5 -60.48)"/><path class="cls-4" d="M374.15,203.72a4.74,4.74,0,0,0,6.72,0l3.27-3.27a12.43,12.43,0,0,0,0-17.59l-19.68-19.68a12.43,12.43,0,0,0-17.59,0l-3.27,3.27a4.74,4.74,0,0,0,0,6.72Z" transform="translate(-159.5 -60.48)"/><path class="cls-4" d="M436.62,163.18l-19.68,19.68a12.43,12.43,0,0,0,0,17.59l3.27,3.27a4.74,4.74,0,0,0,6.72,0l30.55-30.55a4.74,4.74,0,0,0,0-6.72l-3.27-3.27A12.43,12.43,0,0,0,436.62,163.18Z" transform="translate(-159.5 -60.48)"/><path class="cls-5" d="M562.5,258.5c-6.81-9.72-100.58-34.57-160-35.94v-.06l-2.5,0-2.5,0v.06c-59.42,1.37-153.19,26.22-160,35.94-7,10,27,83,43,86,15.57,2.92,76.61-31.1,119.5-32.92,42.89,1.82,103.93,35.84,119.5,32.92C535.5,341.5,569.5,268.5,562.5,258.5Z" transform="translate(-159.5 -60.48)"/><circle class="cls-6" cx="77.5" cy="284.52" r="68"/></svg>