<svg id="レイヤー_1" data-name="レイヤー 1" xmlns="http://www.w3.org/2000/svg" viewBox="0 0 800 800"><defs><style>.cls-1{fill:#aaa;}.cls-2{fill:#ccc;}.cls-3{fill:#999;}.cls-4{fill:#f90;}.cls-5{fill:#f4d3a9;}.cls-6{fill:#06f;}.cls-7{fill:#003dcd;}.cls-8{fill:#6b93ff;}.cls-9{fill:#fff;}</style></defs><title>ルピーfor_work_not_found</title><polygon class="cls-1" points="682.53 524.68 166 571 77.72 309.95 724.28 261.05 682.53 524.68"/><polygon class="cls-2" points="724.28 261.05 77.72 309.95 142 0 657 0 724.28 261.05"/><polygon class="cls-3" points="636.75 230.36 165.25 266.03 211.36 44.2 584.55 29.41 636.75 230.36"/><path class="cls-4" d="M429.06,386.19c-71.15,45-104.37,380.48,53.56,404.77,202.7,31.19,228.07-292.12,169.53-372.74C596.31,341.31,525.14,325.45,429.06,386.19Z"/><circle class="cls-5" cx="554.11" cy="367.52" r="112.79"/><circle class="cls-5" cx="259.44" cy="408.26" r="96.84"/><circle cx="544.66" cy="347.44" r="19.56"/><circle cx="617.88" cy="367.52" r="19.56"/><polygon class="cls-6" points="38.7 154.28 76.36 396.71 226.61 497.5 339.19 355.87 301.52 113.45 151.27 12.65 38.7 154.28"/><polygon class="cls-7" points="339.57 356.55 226.27 497.34 213.03 412.14 268.59 340.2 339.57 356.55"/><polygon class="cls-7" points="301.67 112.62 150.99 12.84 164.23 98.04 238.99 149.74 301.67 112.62"/><polygon class="cls-8" points="37.7 153.64 150.99 12.84 164.23 98.04 108.68 169.98 37.7 153.64"/><polygon class="cls-9" points="141.51 127.46 108.68 169.98 37.7 153.64 90.12 88.49 141.51 127.46"/><polygon class="cls-7" points="75.6 397.56 226.27 497.34 213.03 412.14 138.27 360.44 75.6 397.56"/></svg>